<svg height="569pt" viewBox="0 0 569.30362 569" width="569pt" xmlns="http://www.w3.org/2000/svg"><path d="m379.320312.152344c-104.554687-.1914065-189.464843 84.410156-189.660156 188.960937-.070312 40.273438 12.699219 79.523438 36.460938 112.039063l-26.980469 26.980468-2.777344-2.777343c-3.703125-3.703125-9.707031-3.703125-13.410156 0l-180.175781 180.175781c-3.703125 3.703125-3.703125 9.707031 0 13.410156l47.414062 47.414063c3.703125 3.703125 9.707032 3.703125 13.410156 0l180.175782-180.179688c3.703125-3.703125 3.703125-9.703125 0-13.40625l-2.777344-2.78125 26.980469-26.976562c84.671875 61.558593 203.214843 42.820312 264.773437-41.851563 61.554688-84.671875 42.820313-203.214844-41.851562-264.773437-32.425782-23.574219-71.492188-36.257813-111.582032-36.234375zm-322.421874 546.089844-34.007813-34.003907 166.769531-166.769531 34.003906 34.003906zm170.691406-189.660157-15.039063-15.039062 25.605469-25.558594c4.730469 5.289063 9.75 10.308594 15.039062 15.042969zm151.730468 3.925781c-94.273437 0-170.695312-76.421874-170.695312-170.695312s76.421875-170.695312 170.695312-170.695312c94.273438 0 170.695313 76.425781 170.695313 170.695312-.109375 94.226562-76.46875 170.585938-170.695313 170.695312zm0 0"/><path d="m379.320312 47.566406c-78.558593 0-142.246093 63.6875-142.246093 142.246094s63.6875 142.246094 142.246093 142.246094c78.558594 0 142.246094-63.6875 142.246094-142.246094-.089844-78.523438-63.722656-142.15625-142.246094-142.246094zm0 265.527344c-68.085937 0-123.28125-55.195312-123.28125-123.28125s55.195313-123.277344 123.28125-123.277344c68.085938 0 123.277344 55.191406 123.277344 123.277344-.078125 68.054688-55.226562 123.203125-123.277344 123.28125zm0 0"/><path d="m433.441406 149.101562-94.828125 94.828126-13.410156-13.410157 94.828125-94.828125zm0 0"/><path d="m386.027344 139.621094-56.898438 56.898437-13.410156-13.410156 56.894531-56.898437zm0 0"/><path d="m442.929688 196.519531-56.898438 56.898438-13.410156-13.410157 56.894531-56.898437zm0 0"/></svg>